<?xml version="1.0" standalone="no"?><!DOCTYPE svg PUBLIC "-//W3C//DTD SVG 1.1//EN" "http://www.w3.org/Graphics/SVG/1.1/DTD/svg11.dtd"><svg t="1741980334530" class="icon" viewBox="0 0 1024 1024" version="1.1" xmlns="http://www.w3.org/2000/svg" p-id="48291" xmlns:xlink="http://www.w3.org/1999/xlink" width="64" height="64"><path d="M407.02464 533.4784l4.64384 2.688c38.3232 42.0352-13.68064 49.6896-51.54304 94.76608-37.85728 45.0816-35.03616 80.49664-53.39648 97.26976-18.3552 16.77312-80.3584 15.26272-123.14624-64.78336-42.12224-135.72096 223.44192-129.94048 223.44192-129.94048z" p-id="48292"></path><path d="M404.34176 126.63808l212.0192-46.37696c2.03776-0.48128 4.07552-0.78336 6.10816-1.16736 12.29824-1.8432 21.39136 8.61696 17.82272 20.52608a1058.74944 1058.74944 0 0 1-14.80704 45.88032c-2.11968 6.10816-1.45408 8.22784 5.13024 10.54208 106.68544 36.87424 182.9632 107.35104 229.23264 211.0464 3.2 7.35744 2.70848 10.6496-5.02272 13.44512-6.69184 2.42176-12.19072 7.168-17.42848 12.19072-17.82272 17.2288-35.61472 34.16576-53.5296 51.31264-2.03264 1.92512-4.26496 3.76832-7.168 6.38976-5.6064-21.38624-12.57984-41.1392-22.36416-59.9296-33.77664-64.4864-85.48352-107.93472-153.64608-132.4288-6.38976-2.23232-8.90368-1.36192-10.84928 5.51936-4.54656 16.65024-9.78944 33.11104-15.0016 49.5616-5.21728 16.56832-20.42368 20.224-32.0512 7.36256a104541.53216 104541.53216 0 0 0-148.51072-163.60448c-11.51488-12.86144-6.96832-26.58816 10.06592-30.26944zM141.20448 614.74304c-20.21888-72.59648-40.07936-145.31072-60.02176-218.01472-3.37408-12.4928 6.38976-22.95296 18.96448-20.13696 17.71008 3.95776 35.33824 8.03328 52.6592 12.76928 6.1952 1.64352 8.61696 0.2816 10.84928-5.80096 35.72736-94.7712 99.31776-163.9936 189.34784-209.09568 5.80096-2.816 8.70912-2.11968 13.07648 2.7136 23.23456 26.04544 46.85824 51.51232 71.34208 78.3104-28.83584 9.48224-54.79936 22.1696-78.592 39.40864A276.9664 276.9664 0 0 0 266.37312 410.6752c-2.51392 5.79584-1.36192 7.16288 4.54656 8.4224 15.09376 3.0976 30.01344 6.97344 44.928 10.65472 14.81216 3.57376 19.54816 18.29888 9.09312 29.42464a62512.8192 62512.8192 0 0 1-153.82016 163.32288c-10.83904 11.60192-25.64608 7.72608-29.91616-7.7568zM580.92032 908.928a173560.42752 173560.42752 0 0 0-216.06912 35.33824c-2.03264 0.38912-4.15744 0.58368-6.19008 0.77824-14.22848 1.05984-22.64576-9.58976-17.62816-23.1424a1490.29888 1490.29888 0 0 1 20.224-51.51232c2.11968-5.3248 1.36192-7.36256-3.87584-9.78432-87.3216-41.05216-149.57568-106.68544-189.06624-194.78528-2.70848-6.1952-2.31424-8.4224 4.45952-9.87648 7.55712-1.55648 13.07648-6.77376 18.29888-12.1856 18.10432-19.08224 36.11648-38.04672 54.21568-57.0112 2.03776-2.11968 3.48672-4.93568 6.86592-5.99552 21.58592 81.32608 69.61152 140.28288 143.0784 178.80064 6.69184 3.48672 8.81152 1.8432 11.04384-4.65408 5.02272-14.33088 10.65472-28.45184 16.26624-42.50624 5.71392-14.41792 19.46112-16.8448 29.13792-5.0176a64043.02336 64043.02336 0 0 1 141.34784 172.02688c11.40736 14.13632 6.18496 26.5472-12.1088 29.52704zM919.83872 665.84064c-15.00672-4.65408-30.20288-8.81152-44.928-14.14144-7.168-2.62144-9.47712-0.58368-12.1856 5.80608-39.69024 93.2352-105.32352 161.09056-197.10464 203.2896a323.74784 323.74784 0 0 1-36.39296 14.13632c-2.03776 0.58368-3.77344 2.51392-5.9136-0.86528-17.42848-27.69408-40.55552-50.62656-60.49792-76.19072-3.29216-4.15744-6.69184-8.23296-10.5472-12.88704 14.61248-2.62144 28.45184-5.13536 41.63584-9.59488 77.14816-25.65632 132.14208-76.3904 166.89152-149.9648 2.90304-6.19008 1.06496-7.75168-4.736-9.3952a1337.15456 1337.15456 0 0 1-47.63648-14.33088c-14.91968-4.6592-18.58048-18.96448-7.168-29.81376a46983.68 46983.68 0 0 1 162.432-154.79296c11.2384-10.5472 25.856-5.9136 29.3376 9.20064a45238.28736 45238.28736 0 0 1 49.75616 218.88512c3.584 16.50176-6.95808 25.51296-22.94272 20.6592zM520.20224 376.56064h-12.4672a28.60032 28.60032 0 0 0-26.6752 18.29888L403.4048 596.19328c-7.22432 18.72896 6.59968 38.87616 26.6752 38.87616a28.57984 28.57984 0 0 0 26.96192-19.08736l11.63776-33.024h89.29792l11.05408 32.68096a28.59008 28.59008 0 0 0 27.07968 19.4304h0.08192c19.98848 0 33.80224-19.98336 26.74688-38.6816l-75.99104-201.33376a28.59008 28.59008 0 0 0-26.74688-18.49344z m-35.30752 155.66336l28.8-81.84832 28.44672 81.84832H484.89472z" p-id="48293"></path></svg>