<svg xmlns="http://www.w3.org/2000/svg" xmlns:xlink="http://www.w3.org/1999/xlink" viewBox="0 0 32 32" width="50" height="50" style="" filter="none">
    
    <g>
    <defs fill="rgba(255,138,48,1)"><style fill="rgba(255,138,48,1)">.cls-1 {fill: #fad203;}.cls-1, .cls-2, .cls-3 {stroke-width: 0px;}.cls-2 {fill: #fe9f00;}.cls-3 {fill: #f7b516;}</style></defs><g id="_金属交易" data-name="金属交易" fill="rgba(255,138,48,1)"><g fill="rgba(255,138,48,1)"><g fill="rgba(255,138,48,1)"><g fill="rgba(255,138,48,1)"><path class="cls-2" d="M25.4,27.1h-10.13c-.14,0-.24-.15-.2-.29l1.55-5.92c.18-.7.77-1.18,1.44-1.18h4.56c.67,0,1.25.48,1.44,1.18l1.55,5.92c.04.15-.06.29-.2.29Z" fill="rgba(255,138,48,1)"></path><path class="cls-1" d="M26.72,27.1h-10.13c-.14,0-.24-.15-.2-.29l1.55-5.92c.18-.7.77-1.18,1.44-1.18h4.56c.67,0,1.25.48,1.44,1.18l1.55,5.92c.04.15-.06.29-.2.29Z" fill="rgba(255,138,48,1)"></path></g><g fill="rgba(255,138,48,1)"><path class="cls-2" d="M14.98,27.1H4.85c-.14,0-.24-.15-.2-.29l1.55-5.92c.18-.7.77-1.18,1.44-1.18h4.56c.67,0,1.25.48,1.44,1.18l1.55,5.92c.04.15-.06.29-.2.29Z" fill="rgba(255,138,48,1)"></path><path class="cls-1" d="M16.31,27.1H6.18c-.14,0-.24-.15-.2-.29l1.55-5.92c.18-.7.77-1.18,1.44-1.18h4.56c.67,0,1.25.48,1.44,1.18l1.55,5.92c.04.15-.06.29-.2.29Z" fill="rgba(255,138,48,1)"></path></g></g><g fill="rgba(255,138,48,1)"><path class="cls-2" d="M20.57,19.76h-10.13c-.14,0-.24-.15-.2-.29l1.55-5.92c.18-.7.77-1.18,1.44-1.18h4.56c.67,0,1.25.48,1.44,1.18l1.55,5.92c.04.15-.06.29-.2.29Z" fill="rgba(255,138,48,1)"></path><path class="cls-1" d="M21.9,19.76h-10.13c-.14,0-.24-.15-.2-.29l1.55-5.92c.18-.7.77-1.18,1.44-1.18h4.56c.67,0,1.25.48,1.44,1.18l1.55,5.92c.04.15-.06.29-.2.29Z" fill="rgba(255,138,48,1)"></path></g></g><g fill="rgba(255,138,48,1)"><path class="cls-3" d="M8.14,14.44c-1.11-.09-2-.98-2.06-2.1-.07,1.12-.96,2.02-2.08,2.1,1.11.09,2,.98,2.06,2.1.07-1.12.96-2.02,2.08-2.1Z" fill="rgba(255,138,48,1)"></path><path class="cls-3" d="M28,14.44c-1.11-.09-2-.98-2.06-2.1-.07,1.12-.96,2.02-2.08,2.1,1.11.09,2,.98,2.06,2.1.07-1.12.96-2.02,2.08-2.1Z" fill="rgba(255,138,48,1)"></path><path class="cls-3" d="M18.07,7c-1.11-.09-2-.98-2.06-2.1-.07,1.12-.96,2.02-2.08,2.1,1.11.09,2,.98,2.06,2.1.07-1.12.96-2.02,2.08-2.1Z" fill="rgba(255,138,48,1)"></path></g></g>
    </g>
  </svg>