<?xml version="1.0" standalone="no"?><!DOCTYPE svg PUBLIC "-//W3C//DTD SVG 1.1//EN" "http://www.w3.org/Graphics/SVG/1.1/DTD/svg11.dtd"><svg t="1741979516521" class="icon" viewBox="0 0 1024 1024" version="1.1" xmlns="http://www.w3.org/2000/svg" p-id="4571" width="64" height="64" xmlns:xlink="http://www.w3.org/1999/xlink"><path d="M251.846193 265.487933h7.657271a31.011949 31.011949 0 0 0 26.800449-28.331903 44.412174 44.412174 0 0 0 0-18.760315 118.304842 118.304842 0 0 1-3.828635-44.795037A128.259294 128.259294 0 0 1 333.396132 89.370693a123.664932 123.664932 0 0 1 94.184437-24.120404 125.962113 125.962113 0 0 1 87.292893 45.560764 128.259294 128.259294 0 0 1 29.863358 93.801574 40.966401 40.966401 0 0 0 0 9.571589 27.183313 27.183313 0 0 0 16.845997 32.160539 32.926267 32.926267 0 0 0 28.714767 0 38.286357 38.286357 0 0 0 17.228861-23.354677v-8.040135a180.711603 180.711603 0 0 0-40.583538-141.659519A203.683417 203.683417 0 0 0 436.386431 2.077801 191.431783 191.431783 0 0 0 218.537062 165.943406a174.202922 174.202922 0 0 0 8.422999 76.572714 29.480495 29.480495 0 0 0 26.034722 21.057496z m163.482742-102.990299h-1.914318a99.927391 99.927391 0 0 0-98.395936 96.864482v306.290853a10.72018 10.72018 0 0 1-3.062909 5.742953 7.274408 7.274408 0 0 1-6.891544 0l-30.246222-29.097631a98.013073 98.013073 0 0 0-69.298305-25.651859 106.818935 106.818935 0 0 0-68.915442 26.417586A101.075981 101.075981 0 0 0 103.677993 605.470779 109.49898 109.49898 0 0 0 123.969762 689.3179l50.53799 69.298305c53.600899 68.532578 127.876431 147.019609 150.082518 172.671468 69.681169 88.05862 165.014197 93.41871 262.644406 92.652983h38.286356c121.36775 0 202.151962-38.286357 247.329863-111.030434a389.755109 389.755109 0 0 0 45.560765-217.083641v-177.265831a92.652983 92.652983 0 0 0-28.331904-67.766851 96.481618 96.481618 0 0 0-67.383988-29.480495h-4.211499a109.49898 109.49898 0 0 0-42.880719 9.57159 96.098755 96.098755 0 0 0-88.05862-55.132354 105.28748 105.28748 0 0 0-44.795037 10.337316 97.630209 97.630209 0 0 0-123.282068-49.389399v-76.572713a98.395936 98.395936 0 0 0-29.863358-69.681169 94.567301 94.567301 0 0 0-71.595487-26.80045zM321.527361 644.522863A66.61826 66.61826 0 0 0 385.84844 574.458831l-2.297181-319.308214A34.840584 34.840584 0 0 1 393.122848 229.881622a38.286357 38.286357 0 0 1 25.651859-12.251634 38.286357 38.286357 0 0 1 24.120405 9.954452 38.286357 38.286357 0 0 1 9.188725 24.886132v296.3364a32.926267 32.926267 0 0 0 34.457721 25.651859 34.840584 34.840584 0 0 0 32.543403-28.714768v-122.899204a34.457721 34.457721 0 0 1 9.954453-24.503268 31.394812 31.394812 0 0 1 23.737541-9.954453 29.480495 29.480495 0 0 1 35.989175 20.291769 26.80045 26.80045 0 0 1 0 14.548815v160.419834A34.074857 34.074857 0 0 0 639.686984 612.745187a33.30913 33.30913 0 0 0 16.08027-29.097631v-114.859069a35.989175 35.989175 0 0 1 9.954453-24.886132 38.286357 38.286357 0 0 1 61.25817 24.886132v142.042382a32.926267 32.926267 0 0 0 32.926267 28.331904 31.777676 31.777676 0 0 0 32.543403-28.714767v-95.715892a33.691994 33.691994 0 0 1 32.543403-34.45772 29.097631 29.097631 0 0 1 24.120404 9.954452 32.543403 32.543403 0 0 1 9.954453 23.737541v177.265831a356.445979 356.445979 0 0 1-27.94904 181.47733c-20.674633 61.641034-87.675756 95.333028-194.111828 95.333028h-29.097631a911.215285 911.215285 0 0 1-125.196386-6.508681 163.099879 163.099879 0 0 1-107.201798-65.46967l-200.620508-251.158498a38.286357 38.286357 0 0 1-12.251634-27.183314 35.989175 35.989175 0 0 1 12.251634-26.417586 44.795037 44.795037 0 0 1 58.578125 0l12.251635 11.103044 25.268995 23.737541a69.298305 69.298305 0 0 0 46.326491 18.377451z" p-id="4572"></path></svg>