<svg xmlns="http://www.w3.org/2000/svg" xmlns:xlink="http://www.w3.org/1999/xlink" viewBox="0 0 32 32" width="66.71" height="41.04" style="" filter="none">
    
    <g>
    <path d="M6.667 12c0.736 0 1.333 0.597 1.333 1.333v0c0.004 0 0.009 0 0.014 0 2.184 0 4.192 0.753 5.779 2.015l-0.019-0.015h2.893c1.777 0 3.373 0.773 4.472 2h4.195c0.001 0 0.001 0 0.002 0 2.641 0 4.923 1.535 6.002 3.762l0.017 0.040c-3.153 4.161-8.259 6.865-14.021 6.865-3.72 0-6.867-0.804-9.413-2.211-0.191 0.516-0.679 0.877-1.251 0.877-0.001 0-0.002 0-0.002 0h-4c-0.736 0-1.333-0.597-1.333-1.333v0-12c0-0.736 0.597-1.333 1.333-1.333v0h4zM8.001 16l-0.001 6.696 0.060 0.043c2.393 1.68 5.511 2.595 9.273 2.595 4.005 0 7.732-1.541 10.447-4.173l0.177-0.177-0.16-0.133c-0.602-0.475-1.355-0.782-2.178-0.839l-0.013-0.001-0.273-0.009h-2.815c0.096 0.429 0.148 0.875 0.148 1.333v1.333h-12v-2.667l9.053-0.001-0.045-0.104c-0.518-1.065-1.559-1.805-2.779-1.887l-0.010-0.001-0.219-0.007h-3.907c-1.208-1.235-2.891-2-4.753-2-0.002 0-0.003 0-0.005 0h0zM5.333 14.667h-1.333v9.333h1.333v-9.333zM24 6.667c2.209 0 4 1.791 4 4s-1.791 4-4 4v0c-2.209 0-4-1.791-4-4s1.791-4 4-4v0zM24 9.333c-0.736 0-1.333 0.597-1.333 1.333s0.597 1.333 1.333 1.333v0c0.736 0 1.333-0.597 1.333-1.333s-0.597-1.333-1.333-1.333v0zM14.667 2.667c2.209 0 4 1.791 4 4s-1.791 4-4 4v0c-2.209 0-4-1.791-4-4s1.791-4 4-4v0zM14.667 5.333c-0.736 0-1.333 0.597-1.333 1.333s0.597 1.333 1.333 1.333v0c0.736 0 1.333-0.597 1.333-1.333s-0.597-1.333-1.333-1.333v0z" fill="rgba(255,138,48,1)"></path>
    </g>
  </svg>