<svg t="1742151470451" class="icon" viewBox="0 0 1024 1024" version="1.1" xmlns="http://www.w3.org/2000/svg" p-id="34779" width="64" height="64"><path d="M248.3345957 282.511032h278.046976c16.671886 0 30.337367-13.66548 30.33736599-30.337367s-13.66548-30.337367-30.33736599-30.337366H248.3345957c-16.671886 0-30.337367 13.66548-30.33736601 30.337366s13.66548 30.337367 30.33736601 30.337367zM248.3345957 443.763701h278.046976c16.671886 0 30.337367-13.66548 30.33736599-30.337366 0-16.671886-13.66548-30.337367-30.33736599-30.337367H248.3345957c-16.671886 0-30.337367 13.66548-30.33736601 30.337367 0 16.762989 13.66548 30.337367 30.33736601 30.337366zM396.4684037 544.523843H248.3345957c-16.671886 0-30.337367 13.66548-30.33736601 30.337367 0 16.671886 13.66548 30.337367 30.33736601 30.337367h148.22491099c16.671886 0 30.337367-13.66548 30.337367-30.337367-0.091103-16.762989-13.756584-30.337367-30.42846999-30.337367zM729.08619769 612.304626c-51.108897 0-92.74306001 41.63416399-92.743061 92.743061s41.63416399 92.74306001 92.743061 92.74306c51.108897 0 92.74306001-41.63416399 92.74306-92.74306s-41.63416399-92.74306001-92.74306-92.743061z m0 143.032029c-27.695374 0-50.288968-22.593594-50.288968-50.288968 0-27.695374 22.593594-50.288968 50.288968-50.288968 27.695374 0 50.288968 22.593594 50.288968 50.288968 0 27.695374-22.593594 50.288968-50.288968 50.288968z" p-id="34780"></path><path d="M983.17303069 656.21637c-2.27757999-17.127402-13.118861-30.519573-29.244129-35.89466201-1.184342-0.364413-2.368683-0.728826-3.553024-0.911032-15.03202799-3.097509-25.964413-11.66121-34.61921799-27.05765099-0.091103-0.182206-0.27331-0.45551599-0.36441201-0.637723-7.74377199-13.027758-9.56583599-28.78861199-5.19288299-43.274021 5.557295-15.578648 1.457651-32.797153-10.75017801-45.278292l-0.911032-0.911032c-23.777936-22.229181-51.2-39.083274-81.62846999-50.288968V177.286833c0-64.227758-55.208541-116.429893-122.98932301-116.42989299H212.25772769c-67.780783 0-122.98932399 52.293238-122.98932399 116.42989299v621.50605c0 64.227758 55.208541 116.429893 122.98932399 116.429893h354.938078c22.775801 19.67829199 48.740214 34.71032 77.34662 44.822776 3.097509 1.093238 6.377224 1.639858 9.65693901 1.73096h4.46405699c10.750178-0.27331 20.862633-4.464057 28.697509-11.843416 0.911032-0.911032 1.822064-1.822064 2.64199301-2.824199 9.11032-11.205694 23.32242001-17.582918 39.08327399-17.582918 14.029893 0 28.515302 7.014947 40.905338 19.587188 8.745907 9.019217 18.676157 13.66548 29.335231 13.665481 4.55516 0 9.292527-0.819929 14.02989301-2.55089 0.637722-0.27331 1.36654801-0.45551599 2.00427099-0.72882601 31.612811-13.30106801 58.123843-29.335231 80.899644-48.92241999 13.847687-10.659075 19.769395-28.333096 15.03202901-44.640569-4.737367-18.402847-3.18861199-33.708185 4.91957199-48.193594 0.091103-0.182206 0.27331-0.45551599 0.36441301-0.637723 6.286121-11.843416 19.587189-21.591459 35.62135299-25.964412 1.457651-0.364413 2.915302-0.911032 4.28185-1.548755l1.548755-0.728826c1.913167-0.819929 3.644128-1.822064 5.37508901-3.00640501 8.745907-6.195018 15.305338-15.305338 18.40284699-25.6 0.27331-1.002135 0.546619-2.00427 0.72882501-3.09750899 3.644128-18.76726001 5.375089-35.16583601 5.375089-51.564413 0.091103-16.48968-1.639858-33.890391-4.73736601-49.377936zM549.70399069 854.548043H212.25772769c-34.345907 0-62.405694-25.053381-62.405694-55.846264V177.286833c0-30.792883 27.968683-55.846263 62.405694-55.846264h481.662634c34.345907 0 62.405694 25.053381 62.405693 55.846264V473.736655c-6.741637 3.826335-14.667616 6.195018-23.04911 6.55943-16.580783 0.819929-32.614947-5.830605-45.09608499-18.585053-20.58932401-20.953737-39.083274-14.303203-47.37366601-9.38363-30.519573 13.027758-56.21067601 28.697509-78.439857 47.738078-13.93879 10.294662-20.042705 27.87757999-15.396442 44.731673 4.82847 18.49395 3.18861199 33.799288-4.919573 48.375801-0.091103 0.27331-0.27331 0.45551599-0.364412 0.728825-6.195018 11.843416-19.496085 21.50035599-35.62135299 25.964413-1.36654801 0.364413-2.733096 0.819929-4.09964401 1.457651l-1.639858 0.728826c-1.913167 0.819929-3.826335 1.913167-5.557295 3.188612-8.745907 6.286121-15.305338 15.396441-18.402847 25.691103-0.27331 0.819929-0.45551599 1.730961-0.637722 2.641993-3.553025 16.94519599-5.375089 34.437011-5.466192 51.928826 0 16.307473 1.730961 33.799288 4.91957301 49.28683299 2.368683 17.218505 12.845552 30.15516 29.061921 35.71245501 1.275445 0.45551599 2.459786 0.728826 3.735232 1.002135 15.03202799 3.097509 25.964413 11.66121 34.61921699 27.057652 0.182206 0.27331 0.364413 0.637722 0.546619 0.911032 6.195018 10.385765 8.472598 22.775801 6.55943 35.074733zM924.77587769 736.113879c-27.148754 10.112456-49.19573 28.697509-61.676869 52.202135-13.847687 24.962278-18.129537 52.293238-12.936655 81.537367-13.483274 10.659075-28.697509 19.951601-46.09822 28.150889-22.138078-18.949466-48.375801-29.153025-74.977936-29.153024-28.970819 0-56.02847 10.56797199-76.162278 29.42633399-13.93879-6.012811-26.875445-13.756584-38.80996399-23.04910999-1.093238-3.279715-2.824199-6.286121-4.91957301-9.019217 4.646263-26.784342-0.091103-54.38861201-14.029893-77.711032-14.667616-26.05551601-35.894662-44.185053-61.950178-52.839858-1.548754-9.748043-2.368683-20.133808-2.36868399-29.972954 0.091103-10.385765 0.911032-20.680427 2.55088999-30.975089 27.148754-10.112456 49.286833-28.78861199 61.767972-52.293238 13.847687-24.962278 18.220641-52.293238 12.936654-81.537367 13.483274-10.659075 28.697509-19.951601 46.09822101-28.150889 23.140214 19.313879 52.384342 29.517438 81.71957299 28.150889 26.328826-1.184342 50.92669-11.38790001 69.329537-28.333096 16.125267 6.923843 30.975089 16.21637 44.458363 27.513167-6.012811 27.968683-1.36654801 57.303915 13.209965 82.175089 14.758719 26.146619 35.985765 44.185053 61.95017801 53.02206499 1.548754 9.748043 2.368683 20.133808 2.36868299 30.064056 0.091103 9.839146-0.728826 19.769395-2.459786 30.79288301z" p-id="34781"></path></svg>